<mxfile host="app.diagrams.net" modified="2023-12-24T11:19:42.389Z" agent="Mozilla/5.0 (Macintosh; Intel Mac OS X 10_15_7) AppleWebKit/537.36 (KHTML, like Gecko) Chrome/119.0.0.0 Safari/537.36" etag="qgrLflYheS8AtzHKfoST" version="22.1.11" type="device">
  <diagram name="Page-1" id="2siZnymcdVAlZ5FAW3J-">
    <mxGraphModel dx="1242" dy="715" grid="1" gridSize="10" guides="1" tooltips="1" connect="1" arrows="1" fold="1" page="1" pageScale="1" pageWidth="827" pageHeight="1169" math="0" shadow="0">
      <root>
        <mxCell id="0" />
        <mxCell id="1" parent="0" />
        <mxCell id="I-OAEwv5fuWXyTTzXbyC-1" value="" style="rounded=1;whiteSpace=wrap;html=1;perimeterSpacing=0;" vertex="1" parent="1">
          <mxGeometry x="120" y="160" width="200" height="160" as="geometry" />
        </mxCell>
        <mxCell id="I-OAEwv5fuWXyTTzXbyC-2" value=".net Server" style="text;html=1;strokeColor=none;fillColor=none;align=center;verticalAlign=middle;whiteSpace=wrap;rounded=0;" vertex="1" parent="1">
          <mxGeometry x="120" y="290" width="200" height="30" as="geometry" />
        </mxCell>
        <mxCell id="I-OAEwv5fuWXyTTzXbyC-3" value="" style="rounded=1;whiteSpace=wrap;html=1;" vertex="1" parent="1">
          <mxGeometry x="480" y="160" width="200" height="160" as="geometry" />
        </mxCell>
        <mxCell id="I-OAEwv5fuWXyTTzXbyC-4" value=".net Client" style="text;html=1;strokeColor=none;fillColor=none;align=center;verticalAlign=middle;whiteSpace=wrap;rounded=0;" vertex="1" parent="1">
          <mxGeometry x="480" y="290" width="200" height="30" as="geometry" />
        </mxCell>
        <mxCell id="I-OAEwv5fuWXyTTzXbyC-5" value="gRPC&lt;br&gt;server" style="rounded=1;whiteSpace=wrap;html=1;fillColor=#7EA6E0;fontColor=#ffffff;strokeColor=#3A5431;" vertex="1" parent="1">
          <mxGeometry x="160" y="190" width="120" height="60" as="geometry" />
        </mxCell>
        <mxCell id="I-OAEwv5fuWXyTTzXbyC-6" value="gRPC&lt;br&gt;stub" style="rounded=1;whiteSpace=wrap;html=1;fillColor=#7EA6E0;fontColor=#FFFFFF;" vertex="1" parent="1">
          <mxGeometry x="520" y="190" width="120" height="60" as="geometry" />
        </mxCell>
        <mxCell id="I-OAEwv5fuWXyTTzXbyC-7" value="" style="curved=1;endArrow=classic;html=1;rounded=0;exitX=0;exitY=0.5;exitDx=0;exitDy=0;entryX=1;entryY=0.5;entryDx=0;entryDy=0;strokeWidth=2;strokeColor=#7EA6E0;" edge="1" parent="1" source="I-OAEwv5fuWXyTTzXbyC-6" target="I-OAEwv5fuWXyTTzXbyC-5">
          <mxGeometry width="50" height="50" relative="1" as="geometry">
            <mxPoint x="440" y="340" as="sourcePoint" />
            <mxPoint x="390" y="390" as="targetPoint" />
            <Array as="points">
              <mxPoint x="470" y="180" />
              <mxPoint x="420" y="160" />
              <mxPoint x="360" y="170" />
            </Array>
          </mxGeometry>
        </mxCell>
        <mxCell id="I-OAEwv5fuWXyTTzXbyC-8" value="" style="curved=1;endArrow=classic;html=1;rounded=0;exitX=1;exitY=0.5;exitDx=0;exitDy=0;entryX=0;entryY=0.5;entryDx=0;entryDy=0;strokeWidth=2;strokeColor=#7EA6E0;" edge="1" parent="1" source="I-OAEwv5fuWXyTTzXbyC-5" target="I-OAEwv5fuWXyTTzXbyC-6">
          <mxGeometry width="50" height="50" relative="1" as="geometry">
            <mxPoint x="290" y="260" as="sourcePoint" />
            <mxPoint x="530" y="260" as="targetPoint" />
            <Array as="points">
              <mxPoint x="330" y="250" />
              <mxPoint x="400" y="270" />
              <mxPoint x="480" y="250" />
            </Array>
          </mxGeometry>
        </mxCell>
        <mxCell id="I-OAEwv5fuWXyTTzXbyC-10" value="&lt;font color=&quot;#7ea6e0&quot;&gt;Proto Request&lt;/font&gt;" style="text;html=1;strokeColor=none;fillColor=none;align=center;verticalAlign=middle;whiteSpace=wrap;rounded=0;" vertex="1" parent="1">
          <mxGeometry x="340" y="130" width="130" height="30" as="geometry" />
        </mxCell>
        <mxCell id="I-OAEwv5fuWXyTTzXbyC-11" value="&lt;font color=&quot;#7ea6e0&quot;&gt;Proto Response&lt;/font&gt;" style="text;html=1;strokeColor=none;fillColor=none;align=center;verticalAlign=middle;whiteSpace=wrap;rounded=0;" vertex="1" parent="1">
          <mxGeometry x="340" y="270" width="130" height="30" as="geometry" />
        </mxCell>
      </root>
    </mxGraphModel>
  </diagram>
</mxfile>
